<svg width="40" height="24" viewBox="0 0 40 24" fill="none" xmlns="http://www.w3.org/2000/svg">
<path d="M36.0282 3.4612H24.7237V0.312759H36.0282V3.4612ZM38.8155 19.2034C38.1017 21.2451 35.5388 23.926 30.5778 23.926C25.6136 23.926 21.5924 21.2042 21.5924 14.9923C21.5924 8.83715 25.3471 5.67297 30.4196 5.67297C35.3967 5.67297 38.436 8.47823 39.0997 12.6405C39.2257 13.437 39.2757 14.5106 39.2531 16.0093H26.2902C26.5001 21.0641 31.915 21.2231 33.6994 19.2034H38.8155ZM26.4033 12.9065H34.4213C34.2517 10.4712 32.5868 9.41332 30.4212 9.41332C28.0537 9.41332 26.744 10.6223 26.4033 12.9065ZM10.942 23.9072H0.5V0.345818H11.7285C20.5718 0.47333 20.7397 8.91586 16.1211 11.2174C21.7103 13.2009 21.8976 23.9072 10.942 23.9072ZM5.34475 9.75807H11.1326C15.1828 9.75807 15.8256 5.03542 10.6288 5.03542H5.34475V9.75807ZM10.8209 14.4807H5.34475V19.2286H10.7402C15.6738 19.2286 15.3718 14.4807 10.8209 14.4807Z" fill="#F5F5F5"/>
</svg>
