<svg width="49" height="51" viewBox="0 0 49 51" fill="none" xmlns="http://www.w3.org/2000/svg">
<path d="M7.72458 46.2627C7.72458 45.8485 7.38879 45.5127 6.97458 45.5127C6.56036 45.5127 6.22458 45.8485 6.22458 46.2627H7.72458ZM6.97458 50H6.22458V50.75H6.97458V50ZM9.76271 50.75C10.1769 50.75 10.5127 50.4142 10.5127 50C10.5127 49.5858 10.1769 49.25 9.76271 49.25V50.75ZM12.9025 46.2627C12.9025 45.8485 12.5668 45.5127 12.1525 45.5127C11.7383 45.5127 11.4025 45.8485 11.4025 46.2627H12.9025ZM12.1525 50H11.4025V50.75H12.1525V50ZM14.9407 50.75C15.3549 50.75 15.6907 50.4142 15.6907 50C15.6907 49.5858 15.3549 49.25 14.9407 49.25V50.75ZM26.4449 43.7712C26.4449 43.357 26.1091 43.0212 25.6949 43.0212C25.2807 43.0212 24.9449 43.357 24.9449 43.7712H26.4449ZM25.6949 47.5085H24.9449V48.2585H25.6949V47.5085ZM28.4831 48.2585C28.8973 48.2585 29.2331 47.9227 29.2331 47.5085C29.2331 47.0943 28.8973 46.7585 28.4831 46.7585V48.2585ZM30.4746 47.5085H29.7246V48.2585H30.4746V47.5085ZM33.2627 48.2585C33.6769 48.2585 34.0127 47.9227 34.0127 47.5085C34.0127 47.0943 33.6769 46.7585 33.2627 46.7585V48.2585ZM37.5975 46.2627C37.5975 45.8485 37.2617 45.5127 36.8475 45.5127C36.4332 45.5127 36.0975 45.8485 36.0975 46.2627H37.5975ZM36.8475 49.1695H36.0975V49.9195H36.8475V49.1695ZM39.2373 49.9195C39.6515 49.9195 39.9873 49.5837 39.9873 49.1695C39.9873 48.7553 39.6515 48.4195 39.2373 48.4195V49.9195ZM40.4322 49.1695H39.6822V49.9195H40.4322V49.1695ZM42.822 49.9195C43.2362 49.9195 43.572 49.5837 43.572 49.1695C43.572 48.7553 43.2362 48.4195 42.822 48.4195V49.9195ZM10.9576 4.24153H22.9068V2.74153H10.9576V4.24153ZM22.9534 4.32203V35.8814H24.4534V4.32203H22.9534ZM13.7458 45.5127H1.79661V47.0127H13.7458V45.5127ZM1.75 45.4322V13.8729H0.25V45.4322H1.75ZM1.79661 45.5127C1.79404 45.5127 1.78661 45.5128 1.77458 45.5003C1.76203 45.4872 1.75 45.4647 1.75 45.4322H0.25C0.25 46.2753 0.913291 47.0127 1.79661 47.0127V45.5127ZM22.9534 35.8814C22.9534 41.2304 18.8018 45.5127 13.7458 45.5127V47.0127C19.6886 47.0127 24.4534 41.9993 24.4534 35.8814H22.9534ZM22.9068 4.24153C22.9094 4.24153 22.9168 4.24141 22.9288 4.25394C22.9414 4.26703 22.9534 4.28956 22.9534 4.32203H24.4534C24.4534 3.47891 23.7901 2.74153 22.9068 2.74153V4.24153ZM10.9576 2.74153C5.01482 2.74153 0.25 7.75497 0.25 13.8729H1.75C1.75 8.52387 5.90155 4.24153 10.9576 4.24153V2.74153ZM44.8136 16.6992H47.2034V15.1992H44.8136V16.6992ZM47.25 16.7797V35.8814H48.75V16.7797H47.25ZM38.0424 45.5127H35.6525V47.0127H38.0424V45.5127ZM35.6059 45.4322V26.3305H34.1059V45.4322H35.6059ZM35.6525 45.5127C35.65 45.5127 35.6425 45.5128 35.6305 45.5003C35.618 45.4872 35.6059 45.4647 35.6059 45.4322H34.1059C34.1059 46.2753 34.7692 47.0127 35.6525 47.0127V45.5127ZM47.25 35.8814C47.25 41.2304 43.0985 45.5127 38.0424 45.5127V47.0127C43.9852 47.0127 48.75 41.9993 48.75 35.8814H47.25ZM47.2034 16.6992C47.206 16.6992 47.2134 16.699 47.2254 16.7116C47.238 16.7247 47.25 16.7472 47.25 16.7797H48.75C48.75 15.9365 48.0867 15.1992 47.2034 15.1992V16.6992ZM44.8136 15.1992C38.8708 15.1992 34.1059 20.2126 34.1059 26.3305H35.6059C35.6059 20.9815 39.7575 16.6992 44.8136 16.6992V15.1992ZM31.6695 1.75H39.6356V0.25H31.6695V1.75ZM39.6822 1.83051V33.3898H41.1822V1.83051H39.6822ZM30.4746 43.0212H22.5085V44.5212H30.4746V43.0212ZM22.4619 42.9407V11.3814H20.9619V42.9407H22.4619ZM22.5085 43.0212C22.5059 43.0212 22.4985 43.0213 22.4864 43.0088C22.4739 42.9957 22.4619 42.9732 22.4619 42.9407H20.9619C20.9619 43.7838 21.6252 44.5212 22.5085 44.5212V43.0212ZM39.6822 33.3898C39.6822 38.7388 35.5307 43.0212 30.4746 43.0212V44.5212C36.4174 44.5212 41.1822 39.5077 41.1822 33.3898H39.6822ZM39.6356 1.75C39.6382 1.75 39.6456 1.74988 39.6576 1.76242C39.6702 1.7755 39.6822 1.79803 39.6822 1.83051H41.1822C41.1822 0.987381 40.5189 0.25 39.6356 0.25V1.75ZM31.6695 0.25C25.7267 0.25 20.9619 5.26344 20.9619 11.3814H22.4619C22.4619 6.03234 26.6134 1.75 31.6695 1.75V0.25ZM6.22458 46.2627V50H7.72458V46.2627H6.22458ZM9.76271 49.25H6.97458V50.75H9.76271V49.25ZM11.4025 46.2627V50H12.9025V46.2627H11.4025ZM14.9407 49.25H12.1525V50.75H14.9407V49.25ZM24.9449 43.7712V47.5085H26.4449V43.7712H24.9449ZM28.4831 46.7585H25.6949V48.2585H28.4831V46.7585ZM29.7246 43.7712V47.5085H31.2246V43.7712H29.7246ZM33.2627 46.7585H30.4746V48.2585H33.2627V46.7585ZM36.0975 46.2627V49.1695H37.5975V46.2627H36.0975ZM39.2373 48.4195H36.8475V49.9195H39.2373V48.4195ZM39.6822 45.9618V49.1695H41.1822V45.9618H39.6822ZM42.822 48.4195H40.4322V49.9195H42.822V48.4195Z" fill="#FF4747"/>
</svg>
