<svg width="38" height="37" viewBox="0 0 38 37" fill="none" xmlns="http://www.w3.org/2000/svg">
<path fill-rule="evenodd" clip-rule="evenodd" d="M11.4452 0.73225C13.4006 0.6445 14.0241 0.625 19.0051 0.625C23.9861 0.625 24.6096 0.646125 26.5633 0.73225C28.517 0.818375 29.8506 1.12225 31.0176 1.56263C32.2395 2.01275 33.348 2.71637 34.2649 3.62637C35.1984 4.5185 35.9186 5.5975 36.3787 6.79025C36.8321 7.92775 37.1422 9.22775 37.2322 11.129C37.3222 13.0384 37.3422 13.6461 37.3422 18.5C37.3422 23.3555 37.3205 23.9632 37.2322 25.8694C37.1438 27.7706 36.8321 29.0706 36.3787 30.2081C35.9186 31.401 35.1972 32.4818 34.2649 33.3752C33.348 34.2852 32.2395 34.9873 31.0176 35.4358C29.8506 35.8778 28.517 36.18 26.5666 36.2677C24.6096 36.3555 23.9861 36.375 19.0051 36.375C14.0241 36.375 13.4006 36.3539 11.4452 36.2677C9.49479 36.1816 8.16118 35.8778 6.99427 35.4358C5.77055 34.9872 4.66183 34.284 3.74527 33.3752C2.81238 32.4826 2.09045 31.4023 1.62983 30.2097C1.17807 29.0722 0.86801 27.7722 0.777991 25.871C0.687973 23.9616 0.667969 23.3539 0.667969 18.5C0.667969 13.6445 0.68964 13.0367 0.777991 11.1322C0.866343 9.22775 1.17807 7.92775 1.62983 6.79025C2.09113 5.59763 2.81361 4.51738 3.74694 3.62475C4.66219 2.71556 5.76981 2.01185 6.99261 1.56263C8.15951 1.12225 9.49312 0.82 11.4435 0.73225H11.4452ZM26.4149 3.94975C24.4812 3.86363 23.9011 3.84575 19.0051 3.84575C14.1091 3.84575 13.529 3.86363 11.5952 3.94975C9.80652 4.02938 8.83632 4.32025 8.18952 4.56562C7.33434 4.89062 6.72255 5.27575 6.08075 5.90138C5.47237 6.47833 5.00416 7.18071 4.71047 7.957C4.45875 8.5875 4.16035 9.53325 4.07867 11.2769C3.99032 13.1619 3.97198 13.7274 3.97198 18.5C3.97198 23.2726 3.99032 23.8381 4.07867 25.7231C4.16035 27.4667 4.45875 28.4125 4.71047 29.043C5.00386 29.8181 5.47229 30.5217 6.08075 31.0986C6.67254 31.6917 7.39435 32.1484 8.18952 32.4344C8.83632 32.6798 9.80652 32.9706 11.5952 33.0503C13.529 33.1364 14.1074 33.1543 19.0051 33.1543C23.9028 33.1543 24.4812 33.1364 26.4149 33.0503C28.2036 32.9706 29.1738 32.6798 29.8206 32.4344C30.6758 32.1094 31.2876 31.7243 31.9294 31.0986C32.5379 30.5217 33.0063 29.8181 33.2997 29.043C33.5514 28.4125 33.8498 27.4667 33.9315 25.7231C34.0198 23.8381 34.0382 23.2726 34.0382 18.5C34.0382 13.7274 34.0198 13.1619 33.9315 11.2769C33.8498 9.53325 33.5514 8.5875 33.2997 7.957C32.9663 7.12337 32.5712 6.527 31.9294 5.90138C31.3375 5.30837 30.617 4.85197 29.8206 4.56562C29.1738 4.32025 28.2036 4.02938 26.4149 3.94975ZM16.6629 24.0104C17.971 24.5412 19.4275 24.6128 20.7837 24.213C22.1399 23.8133 23.3116 22.967 24.0988 21.8186C24.886 20.6703 25.2398 19.2912 25.0997 17.9168C24.9597 16.5424 24.3345 15.2581 23.331 14.2831C22.6912 13.6599 21.9177 13.1827 21.0661 12.8859C20.2144 12.589 19.3059 12.48 18.4058 12.5665C17.5057 12.653 16.6365 12.933 15.8608 13.3863C15.085 13.8396 14.422 14.455 13.9195 15.188C13.417 15.9211 13.0875 16.7536 12.9547 17.6257C12.8219 18.4978 12.8891 19.3877 13.1514 20.2315C13.4138 21.0752 13.8648 21.8517 14.472 22.5052C15.0792 23.1586 15.8275 23.6727 16.6629 24.0104ZM12.3404 12.0033C13.2156 11.1501 14.2546 10.4733 15.3982 10.0116C16.5417 9.54986 17.7673 9.31221 19.0051 9.31221C20.2428 9.31221 21.4685 9.54986 22.612 10.0116C23.7555 10.4733 24.7946 11.1501 25.6698 12.0033C26.545 12.8564 27.2393 13.8693 27.7129 14.984C28.1866 16.0987 28.4304 17.2934 28.4304 18.5C28.4304 19.7066 28.1866 20.9013 27.7129 22.016C27.2393 23.1307 26.545 24.1436 25.6698 24.9967C23.9022 26.7198 21.5048 27.6878 19.0051 27.6878C16.5053 27.6878 14.108 26.7198 12.3404 24.9967C10.5728 23.2737 9.57976 20.9368 9.57976 18.5C9.57976 16.0632 10.5728 13.7263 12.3404 12.0033ZM30.5208 10.6805C30.7377 10.4811 30.9113 10.2412 31.0314 9.97521C31.1515 9.70918 31.2156 9.42237 31.22 9.13176C31.2243 8.84115 31.1688 8.55264 31.0567 8.28332C30.9446 8.01399 30.7782 7.76933 30.5674 7.56381C30.3566 7.3583 30.1056 7.19611 29.8293 7.08684C29.553 6.97758 29.257 6.92346 28.9589 6.9277C28.6608 6.93193 28.3666 6.99444 28.0937 7.11151C27.8208 7.22858 27.5747 7.39783 27.3701 7.60925C26.9722 8.02042 26.7544 8.56657 26.7628 9.13176C26.7713 9.69695 27.0054 10.2367 27.4154 10.6364C27.8254 11.0361 28.3791 11.2642 28.9589 11.2725C29.5387 11.2807 30.099 11.0684 30.5208 10.6805Z" fill="#F5F5F5"/>
</svg>
