<svg width="29" height="29" viewBox="0 0 29 29" fill="none" xmlns="http://www.w3.org/2000/svg">
<path fill-rule="evenodd" clip-rule="evenodd" d="M11.0683 10.2973H16.2922V12.8339C17.0447 11.375 18.9745 10.0643 21.8734 10.0643C27.4306 10.0643 28.7499 12.9682 28.7499 18.2963V28.1641H23.1238V19.5097C23.1238 16.4755 22.3713 14.7644 20.4556 14.7644C17.7986 14.7644 16.6945 16.6085 16.6945 19.5084V28.1641H11.0683V10.2973ZM1.42087 27.931H7.04703V10.0643H1.42087V27.931ZM7.85297 4.23848C7.85318 4.69817 7.75966 5.15332 7.57784 5.57747C7.39602 6.00162 7.12952 6.38631 6.79385 6.70919C6.11365 7.36817 5.19294 7.73703 4.23395 7.73477C3.27664 7.73414 2.35806 7.36622 1.67686 6.71056C1.3424 6.38659 1.07681 6.00146 0.895306 5.57726C0.713803 5.15305 0.619955 4.6981 0.619141 4.23848C0.619141 3.31025 0.998906 2.42178 1.67827 1.76639C2.35887 1.10986 3.27784 0.741777 4.23535 0.742188C5.19461 0.742188 6.11449 1.11101 6.79385 1.76639C7.4718 2.42178 7.85297 3.31025 7.85297 4.23848Z" fill="#F5F5F5"/>
</svg>
