<svg width="54" height="72" viewBox="0 0 54 72" fill="none" xmlns="http://www.w3.org/2000/svg">
<path d="M6.08479 41.3687H6.11572L5.09789 39.8196C2.51785 35.8928 1 31.2446 1 26.25C1 12.3312 12.6138 1 27 1C41.3862 1 53 12.3312 53 26.25C53 31.2446 51.4821 35.8931 48.9056 39.8202L47.8896 41.3687H47.9145L29.5059 69.3683C28.3196 71.1726 25.6803 71.1739 24.4965 69.374C20.1162 62.7138 12.2617 50.7699 6.08479 41.3687ZM14.4286 26.25C14.4286 33.0424 20.0832 38.5 27 38.5C33.9168 38.5 39.5714 33.0424 39.5714 26.25C39.5714 19.4576 33.9168 14 27 14C20.0832 14 14.4286 19.4576 14.4286 26.25Z" stroke="#FF4747" stroke-width="2"/>
</svg>
