<svg width="38" height="25" viewBox="0 0 38 25" fill="none" xmlns="http://www.w3.org/2000/svg">
<path d="M37.2195 3.91301C37.0071 3.17449 36.5934 2.50588 36.0223 1.97824C35.4352 1.43438 34.7155 1.04535 33.9313 0.847853C30.9963 0.0937513 19.2376 0.0937515 19.2376 0.0937515C14.3356 0.039384 9.43473 0.278506 4.56274 0.809767C3.7785 1.02185 3.06019 1.41958 2.47168 1.96758C1.89344 2.50992 1.4746 3.17871 1.25581 3.91149C0.730221 6.67157 0.474855 9.47408 0.493152 12.2813C0.474398 15.0859 0.729138 17.8875 1.25581 20.651C1.46992 21.3807 1.88719 22.0465 2.467 22.5843C3.0468 23.122 3.76883 23.5105 4.56274 23.7162C7.53679 24.4688 19.2376 24.4688 19.2376 24.4688C24.1459 24.5232 29.053 24.2841 33.9313 23.7527C34.7155 23.5552 35.4352 23.1662 36.0223 22.6223C36.5932 22.0948 37.0064 21.4261 37.2179 20.6876C37.7572 17.9286 38.0194 15.1249 38.0009 12.3163C38.0414 9.49581 37.7795 6.67891 37.2195 3.91149V3.91301ZM15.4994 17.4975V7.06653L25.2826 12.2828L15.4994 17.4975Z" fill="#F5F5F5"/>
</svg>
