<svg width="38" height="34" viewBox="0 0 38 34" fill="none" xmlns="http://www.w3.org/2000/svg">
<path d="M15.4545 1.11597L15.6014 0.5H14.9682H8.82418H8.45399L8.34595 0.854077L2.97342 18.4614C2.54682 19.6533 2.20383 20.6795 1.94537 21.5389C1.68522 22.4038 1.50735 23.1532 1.41723 23.7824C1.32777 24.407 1.28418 25.1124 1.28418 25.8961C1.28418 27.9644 1.91891 29.7443 3.20031 31.205L3.21129 31.2175L3.22308 31.2293C4.60955 32.6122 6.40694 33.2904 8.56818 33.2904C10.5722 33.2904 12.2796 32.6034 13.6573 31.2293C15.0439 29.8462 15.7242 28.0528 15.7242 25.8961C15.7242 23.7432 15.0458 21.9861 13.6512 20.6844C12.9312 19.968 12.1007 19.4413 11.1661 19.1006L15.4545 1.11597ZM37.2145 1.11597L37.3614 0.5H36.7282H30.5842H30.214L30.1059 0.854077L24.7334 18.4614C24.3068 19.6533 23.9638 20.6795 23.7054 21.5389C23.4452 22.4038 23.2673 23.1532 23.1772 23.7824C23.0878 24.407 23.0442 25.1124 23.0442 25.8961C23.0442 27.9644 23.6789 29.7443 24.9603 31.205L24.9713 31.2175L24.9831 31.2293C26.3695 32.6122 28.1669 33.2904 30.3282 33.2904C32.3322 33.2904 34.0396 32.6034 35.4173 31.2293C36.8039 29.8462 37.4842 28.0528 37.4842 25.8961C37.4842 23.7432 36.8058 21.9861 35.4112 20.6845C34.6913 19.9681 33.8607 19.4413 32.9261 19.1006L37.2145 1.11597Z" stroke="#181818"/>
</svg>
