<svg width="31" height="20" viewBox="0 0 31 20" fill="none" xmlns="http://www.w3.org/2000/svg">
<path d="M28.4167 2.58333H19.375V0H28.4167V2.58333ZM30.6461 15.5C30.0752 17.1753 28.0253 19.375 24.0573 19.375C20.0867 19.375 16.8705 17.1417 16.8705 12.0448C16.8705 6.99437 19.8736 4.39812 23.9307 4.39812C27.9116 4.39812 30.3425 6.69988 30.8734 10.115C30.9742 10.7686 31.0142 11.6495 30.9961 12.8792H20.6279C20.7958 17.0267 25.1268 17.1572 26.5541 15.5H30.6461ZM20.7183 10.3333H27.1315C26.9958 8.33512 25.6641 7.46712 23.932 7.46712C22.0384 7.46712 20.9909 8.45912 20.7183 10.3333ZM8.35192 19.3595H0V0.0271249H8.98096C16.0541 0.13175 16.1885 7.05896 12.4943 8.94737C16.9648 10.5749 17.1146 19.3595 8.35192 19.3595ZM3.875 7.75H8.50433C11.7438 7.75 12.2579 3.875 8.10133 3.875H3.875V7.75ZM8.25504 11.625H3.875V15.5207H8.19046C12.1365 15.5207 11.895 11.625 8.25504 11.625Z" fill="black"/>
</svg>
