<svg width="30" height="30" viewBox="0 0 30 30" fill="none" xmlns="http://www.w3.org/2000/svg">
<path fill-rule="evenodd" clip-rule="evenodd" d="M8.95301 0.421496C10.517 0.349496 11.0157 0.333496 14.9997 0.333496C18.9837 0.333496 19.4823 0.350829 21.045 0.421496C22.6077 0.492163 23.6743 0.741496 24.6077 1.10283C25.585 1.47216 26.4717 2.0495 27.205 2.79616C27.9517 3.52816 28.5277 4.4135 28.8957 5.39216C29.2583 6.3255 29.5063 7.39216 29.5783 8.95216C29.6503 10.5188 29.6663 11.0175 29.6663 15.0002C29.6663 18.9842 29.649 19.4828 29.5783 21.0468C29.5077 22.6068 29.2583 23.6735 28.8957 24.6068C28.5277 25.5856 27.9507 26.4724 27.205 27.2055C26.4717 27.9522 25.585 28.5282 24.6077 28.8962C23.6743 29.2588 22.6077 29.5068 21.0477 29.5788C19.4823 29.6508 18.9837 29.6668 14.9997 29.6668C11.0157 29.6668 10.517 29.6495 8.95301 29.5788C7.39301 29.5082 6.32634 29.2588 5.39301 28.8962C4.41424 28.5281 3.52744 27.9512 2.79434 27.2055C2.04818 26.4731 1.47076 25.5867 1.10234 24.6082C0.741008 23.6748 0.493008 22.6082 0.421008 21.0482C0.349008 19.4815 0.333008 18.9828 0.333008 15.0002C0.333008 11.0162 0.350341 10.5175 0.421008 8.95483C0.491674 7.39216 0.741008 6.3255 1.10234 5.39216C1.4713 4.4136 2.04917 3.52725 2.79567 2.79483C3.52773 2.04883 4.41364 1.47142 5.39167 1.10283C6.32501 0.741496 7.39167 0.493496 8.95168 0.421496H8.95301ZM20.9263 3.0615C19.3797 2.99083 18.9157 2.97616 14.9997 2.97616C11.0837 2.97616 10.6197 2.99083 9.07301 3.0615C7.64234 3.12683 6.86634 3.3655 6.34901 3.56683C5.66501 3.8335 5.17567 4.1495 4.66234 4.66283C4.17573 5.13623 3.80125 5.71254 3.56634 6.3495C3.36501 6.86683 3.12634 7.64283 3.06101 9.0735C2.99034 10.6202 2.97567 11.0842 2.97567 15.0002C2.97567 18.9162 2.99034 19.3802 3.06101 20.9268C3.12634 22.3575 3.36501 23.1335 3.56634 23.6508C3.80101 24.2868 4.17567 24.8642 4.66234 25.3375C5.13567 25.8242 5.71301 26.1988 6.34901 26.4335C6.86634 26.6348 7.64234 26.8735 9.07301 26.9388C10.6197 27.0095 11.0823 27.0242 14.9997 27.0242C18.917 27.0242 19.3797 27.0095 20.9263 26.9388C22.357 26.8735 23.133 26.6348 23.6503 26.4335C24.3343 26.1668 24.8237 25.8508 25.337 25.3375C25.8237 24.8642 26.1983 24.2868 26.433 23.6508C26.6343 23.1335 26.873 22.3575 26.9383 20.9268C27.009 19.3802 27.0237 18.9162 27.0237 15.0002C27.0237 11.0842 27.009 10.6202 26.9383 9.0735C26.873 7.64283 26.6343 6.86683 26.433 6.3495C26.1663 5.6655 25.8503 5.17616 25.337 4.66283C24.8636 4.17626 24.2873 3.80178 23.6503 3.56683C23.133 3.3655 22.357 3.12683 20.9263 3.0615ZM13.1263 19.5215C14.1726 19.957 15.3375 20.0158 16.4222 19.6878C17.507 19.3598 18.4442 18.6654 19.0738 17.7232C19.7034 16.7809 19.9864 15.6493 19.8744 14.5216C19.7624 13.3939 19.2623 12.3401 18.4597 11.5402C17.948 11.0288 17.3293 10.6372 16.6481 10.3937C15.9669 10.1501 15.2402 10.0606 14.5203 10.1317C13.8004 10.2027 13.1052 10.4324 12.4847 10.8043C11.8643 11.1763 11.334 11.6812 10.9321 12.2826C10.5302 12.8841 10.2666 13.5672 10.1604 14.2828C10.0541 14.9983 10.1079 15.7286 10.3177 16.4209C10.5276 17.1131 10.8883 17.7503 11.374 18.2865C11.8596 18.8226 12.4581 19.2444 13.1263 19.5215ZM9.66901 9.6695C10.369 8.96946 11.2001 8.41417 12.1147 8.03531C13.0294 7.65646 14.0097 7.46146 14.9997 7.46146C15.9897 7.46146 16.97 7.65646 17.8846 8.03531C18.7992 8.41417 19.6303 8.96946 20.3303 9.6695C21.0304 10.3695 21.5857 11.2006 21.9645 12.1152C22.3434 13.0299 22.5384 14.0102 22.5384 15.0002C22.5384 15.9902 22.3434 16.9705 21.9645 17.8851C21.5857 18.7997 21.0304 19.6308 20.3303 20.3308C18.9166 21.7446 16.9991 22.5389 14.9997 22.5389C13.0003 22.5389 11.0828 21.7446 9.66901 20.3308C8.25523 18.917 7.46097 16.9996 7.46097 15.0002C7.46097 13.0008 8.25523 11.0833 9.66901 9.6695ZM24.2103 8.58416C24.3838 8.42052 24.5227 8.22374 24.6187 8.00546C24.7148 7.78719 24.7661 7.55185 24.7696 7.3134C24.773 7.07495 24.7286 6.83823 24.639 6.61724C24.5493 6.39626 24.4163 6.19551 24.2476 6.02688C24.079 5.85825 23.8782 5.72517 23.6573 5.63552C23.4363 5.54587 23.1996 5.50146 22.9611 5.50494C22.7226 5.50842 22.4873 5.5597 22.269 5.65576C22.0508 5.75181 21.854 5.89069 21.6903 6.06416C21.3721 6.40154 21.1978 6.84966 21.2046 7.3134C21.2114 7.77715 21.3986 8.22 21.7266 8.54795C22.0545 8.87591 22.4974 9.06313 22.9611 9.06989C23.4248 9.07666 23.873 8.90242 24.2103 8.58416Z" fill="black"/>
</svg>
