<svg width="23" height="23" viewBox="0 0 23 23" fill="none" xmlns="http://www.w3.org/2000/svg">
<path fill-rule="evenodd" clip-rule="evenodd" d="M8.60763 8.09013H12.7859V10.1714C13.3878 8.97438 14.9313 7.89888 17.2499 7.89888C21.6948 7.89888 22.75 10.2816 22.75 14.6534V22.75H18.25V15.649C18.25 13.1594 17.6481 11.7554 16.1159 11.7554C13.9908 11.7554 13.1076 13.2685 13.1076 15.6479V22.75H8.60763V8.09013ZM0.89125 22.5588H5.39125V7.89888H0.89125V22.5588ZM6.03588 3.11875C6.03604 3.49593 5.96124 3.86939 5.81581 4.21741C5.67038 4.56543 5.45723 4.88108 5.18875 5.146C4.6447 5.6867 3.90829 5.98936 3.14125 5.9875C2.37556 5.98699 1.64085 5.6851 1.096 5.14713C0.828488 4.8813 0.616059 4.5653 0.470887 4.21724C0.325714 3.86917 0.250652 3.49588 0.25 3.11875C0.25 2.35713 0.55375 1.62813 1.09713 1.09038C1.6415 0.551678 2.37652 0.249663 3.14238 0.25C3.90963 0.25 4.64538 0.552625 5.18875 1.09038C5.731 1.62813 6.03588 2.35713 6.03588 3.11875Z" fill="black"/>
</svg>
