<svg width="17" height="35" viewBox="0 0 17 35" fill="none" xmlns="http://www.w3.org/2000/svg">
<path d="M10.8013 33.3989C9.79004 34.2299 8.41753 34.6692 6.90053 34.6417C3.53317 34.5774 0.846968 32.1797 0.911846 29.2971L0.659619 6.13757C0.741035 2.63193 4.11875 0.165582 8.69386 0.249157C10.7444 0.287056 12.7799 1.09813 14.2807 2.47543C15.7655 3.83841 16.5939 5.62959 16.5532 7.39071L16.7698 24.9171C16.7777 25.4066 16.319 25.8062 15.7472 25.8107C15.1757 25.8144 14.7077 25.4216 14.7019 24.9321L14.4849 7.37908C14.5155 6.04862 13.8898 4.71122 12.7697 3.68266C11.6488 2.65346 10.1479 2.04802 8.65322 2.01997C5.84566 1.96771 2.79454 3.23934 2.72823 6.15015L2.98083 29.3094C2.93703 31.2422 4.71454 32.8281 6.94141 32.87C7.98475 32.8888 8.86548 32.5919 9.49929 32.0042C10.126 31.4224 10.4828 30.5677 10.5048 29.5982L10.279 11.1486C10.294 10.5006 10.1602 9.05209 8.61213 9.02309C7.73568 9.00694 7.44829 9.28844 7.35328 9.38061C7.08347 9.64522 6.93468 10.1028 6.92126 10.7036L7.08493 24.5847C7.09063 25.0747 6.6323 25.4752 6.06154 25.4777C5.49038 25.4822 5.02239 25.0882 5.01702 24.5997L4.85255 10.6929C4.87528 9.63141 5.19077 8.80693 5.79105 8.21683C6.25993 7.75674 7.12702 7.22396 8.65276 7.25287C10.9162 7.29484 12.3999 8.86521 12.3474 11.1608L12.5724 29.6097C12.5408 31.0384 11.9899 32.3059 11.0211 33.206C10.9505 33.2727 10.8769 33.3368 10.8013 33.3989L10.8013 33.3989Z" fill="black"/>
</svg>
